# xmcd
#
# Track frame offsets:
#	150
#	19677
#	42251
#	62035
#	72641
#	89514
#	109007
#	124795
#	142981
#	158012
#	181326
#
# Disc length: 2815 seconds
#
# Revision: 0
# Processed by: cddbd v1.5.2PL0 Copyright (c) Steve Scherf et al.
# Submitted via: EZCDAudioConverter 4.0.5.1
#
DISCID=940afd0b
DTITLE=Granville Automatic
DYEAR=2012
DGENRE=Country
TTITLE0=Comanche
TTITLE1=Hazel Creek
TTITLE2=Carolina Amen
TTITLE3=Shores of Maryland
TTITLE4=Copenhill
TTITLE5=The Groundskeeper
TTITLE6=Tacoma Coal Line
TTITLE7=Flying Mercury
TTITLE8=Never on a Sunday
TTITLE9=Blood and Gold
TTITLE10=Don't Come to Tennessee
EXTD=
EXTT0=
EXTT1=
EXTT2=
EXTT3=
EXTT4=
EXTT5=
EXTT6=
EXTT7=
EXTT8=
EXTT9=
EXTT10=
PLAYORDER=
